<?xml version="1.0" encoding="utf-8"?>
<!-- Svg Vector Icons : http://www.onlinewebfonts.com/icon -->
<!DOCTYPE svg PUBLIC "-//W3C//DTD SVG 1.1//EN" "http://www.w3.org/Graphics/SVG/1.1/DTD/svg11.dtd">
<svg version="1.1" xmlns="http://www.w3.org/2000/svg" xmlns:xlink="http://www.w3.org/1999/xlink" x="0px" y="0px" viewBox="0 0 1000 1000" enable-background="new 0 0 1000 1000" xml:space="preserve">
<metadata> Svg Vector Icons : http://www.onlinewebfonts.com/icon </metadata>
<g><g transform="translate(0.000000,512.000000) scale(0.100000,-0.100000)"><path d="M4154.2,4922.4c-120.6-290.9-476.6-694.8-803.9-914.9c-518.7-344.5-1106.3-522.5-1925.6-578.1l-331.1-23l-11.5-116.8c-70.8-666.1-76.6-794.3-76.6-1485.3c0-555.1,7.7-784.8,32.5-1014.5c153.1-1359,507.2-2419.4,1114-3330.5c212.5-317.7,373.2-516.8,650.8-802c560.8-576.1,1202-1012.5,1967.7-1341.7l227.8-95.7l181.8,76.6C7480.9-3719.6,8769-1759.6,8975.8,1067.5c24.9,342.6,24.9,1123.6,0,1483.4c-19.2,273.7-74.7,847.9-82.3,853.7c-1.9,1.9-151.2,13.4-331.1,24.9c-488.1,32.5-855.6,103.4-1226.9,233.5c-656.5,231.6-1190.5,664.2-1454.7,1181l-90,176.1h-798.2h-796.3L4154.2,4922.4z M5486.4,4353.9c70.8-122.5,285.2-375.2,442.1-522.5c541.7-509.1,1345.6-853.7,2237.5-959l195.3-21l15.3-145.5c7.7-80.4,15.3-476.6,15.3-882.4c-1.9-790.5-17.2-1016.4-116.7-1588.7c-342.6-1998.3-1343.7-3414.7-2997.5-4245.4l-281.4-141.6l-321.6,164.6c-872.8,444-1548.5,1041.2-2050,1808.8c-539.8,826.9-857.5,1793.5-993.4,3016.5c-36.4,338.8-47.9,1435.6-19.1,1810.7l17.2,204.8l135.9,13.4c1144.6,111,2143.7,633.6,2681.6,1403l111,157h442.1h444.1L5486.4,4353.9z"/><path d="M4422.2,3448.6c-57.4-164.6-317.7-470.9-528.3-622.1c-336.9-241.2-834.5-394.3-1370.5-423l-222-11.5l-26.8-289c-40.2-432.6-34.5-1349.4,9.6-1676.7c199.1-1485.3,800.1-2534.2,1858.6-3244.3c218.2-147.4,780.9-430.7,851.8-430.7c72.7,0,635.5,285.2,863.2,438.3c1025.9,685.2,1623.1,1707.3,1839.4,3146.7c36.4,235.4,42.1,357.9,42.1,913c1.9,417.3-7.7,729.3-24.9,895.8l-24.9,252.7h-132.1c-444.1,0-949.4,132.1-1330.3,344.5c-216.3,122.5-507.2,415.4-610.6,616.3l-76.6,149.3h-549.3h-547.4L4422.2,3448.6z"/></g></g>
</svg>