<?xml version="1.0" encoding="UTF-8"?>
<svg width="700pt" height="500pt" version="1.1" viewBox="0 0 700 500" xmlns="http://www.w3.org/2000/svg" xmlns:xlink="http://www.w3.org/1999/xlink">
 <g>
  <path d="m536.31 491.23h-212.13c-25.703 0-46.648-20.945-46.648-46.648v-328.66c0-25.703 20.945-46.648 46.648-46.648h212.13c25.703 0 46.648 20.945 46.648 46.648v328.61c0.054687 25.758-20.891 46.699-46.648 46.699zm-212.13-407.68c-17.863 0-32.367 14.504-32.367 32.367v328.61c0 17.863 14.504 32.367 32.367 32.367h212.13c17.863 0 32.367-14.504 32.367-32.367v-328.61c0-17.863-14.504-32.367-32.367-32.367zm225.96 364v-334.6c0-5.9922-4.8711-10.809-10.809-10.809h-218.12c-5.9922 0-10.809 4.8711-10.809 10.809v334.54c0 5.9922 4.8711 10.809 10.809 10.809h218.12c5.9375 0.054687 10.809-4.8164 10.809-10.754zm-328.55-94.359h-71.516v-37.184h-37.184v-71.512h37.184v-37.184h71.512v37.184h37.184v71.512h-37.184zm-61.656-9.8555h51.801v-37.184h37.184v-51.801h-37.184v-37.184h-51.801v37.184h-37.184v51.801h37.184zm78.848-78.902h-37.184v-37.184h-31.586v37.184h-37.184v31.586h37.184v37.184h31.586v-37.184h37.184z"/>
  <use x="70" y="644" xlink:href="#u"/>
  <use x="90.550781" y="644" xlink:href="#b"/>
  <use x="104.359375" y="644" xlink:href="#a"/>
  <use x="123.347656" y="644" xlink:href="#k"/>
  <use x="142.242188" y="644" xlink:href="#c"/>
  <use x="155.628906" y="644" xlink:href="#a"/>
  <use x="174.617188" y="644" xlink:href="#j"/>
  <use x="204.410156" y="644" xlink:href="#i"/>
  <use x="224.453125" y="644" xlink:href="#h"/>
  <use x="252.453125" y="644" xlink:href="#g"/>
  <use x="272.617188" y="644" xlink:href="#c"/>
  <use x="286" y="644" xlink:href="#a"/>
  <use x="304.992188" y="644" xlink:href="#t"/>
  <use x="325.035156" y="644" xlink:href="#f"/>
  <use x="344.96875" y="644" xlink:href="#a"/>
  <use x="363.960938" y="644" xlink:href="#e"/>
  <use x="393.640625" y="644" xlink:href="#s"/>
  <use x="415.335938" y="644" xlink:href="#a"/>
  <use x="434.328125" y="644" xlink:href="#b"/>
  <use x="448.136719" y="644" xlink:href="#b"/>
  <use x="70" y="672" xlink:href="#r"/>
  <use x="82.183594" y="672" xlink:href="#b"/>
  <use x="95.992188" y="672" xlink:href="#d"/>
  <use x="115.226562" y="672" xlink:href="#q"/>
  <use x="154.152344" y="672" xlink:href="#c"/>
  <use x="167.535156" y="672" xlink:href="#f"/>
  <use x="187.46875" y="672" xlink:href="#a"/>
  <use x="216.207031" y="672" xlink:href="#p"/>
  <use x="239.640625" y="672" xlink:href="#d"/>
  <use x="258.878906" y="672" xlink:href="#o"/>
  <use x="278.8125" y="672" xlink:href="#e"/>
  <use x="308.492188" y="672" xlink:href="#n"/>
  <use x="329.015625" y="672" xlink:href="#b"/>
  <use x="342.820312" y="672" xlink:href="#d"/>
  <use x="362.058594" y="672" xlink:href="#m"/>
  <use x="371.65625" y="672" xlink:href="#a"/>
  <use x="390.648438" y="672" xlink:href="#l"/>
  <use x="407.242188" y="672" xlink:href="#c"/>
 </g>
</svg>
