<?xml version="1.0" encoding="utf-8"?>
<!-- Svg Vector Icons : http://www.onlinewebfonts.com/icon -->
<!DOCTYPE svg PUBLIC "-//W3C//DTD SVG 1.1//EN" "http://www.w3.org/Graphics/SVG/1.1/DTD/svg11.dtd">
<svg version="1.1" xmlns="http://www.w3.org/2000/svg" xmlns:xlink="http://www.w3.org/1999/xlink" x="0px" y="0px" viewBox="0 0 1000 1000" enable-background="new 0 0 1000 1000" xml:space="preserve">
<metadata> Svg Vector Icons : http://www.onlinewebfonts.com/icon </metadata>
<g><g transform="translate(0.000000,511.000000) scale(0.100000,-0.100000)"><path d="M2389.1,4377.7C1105.6,4149.5,171.4,3094.3,104.2,1799.4c-15.3-268.6,9.6-437.4,99.8-709.8C317.2,751.9,532,385.5,842.8,1.8c84.4-105.5,1043.6-1078.1,2154.4-2188.9l2000.9-1999l2035.4,2037.4C8152-1026.4,9126.5-36.5,9197.5,53.6c376,475.8,615.8,943.9,684.9,1339.1c38.4,218.7,11.5,663.8-55.6,924.7c-270.5,1051.3-1070.5,1818.7-2133.3,2047c-128.5,26.9-247.5,34.5-556.3,34.5c-360.7-1.9-410.5-5.8-594.7-51.8c-535.2-134.3-949.6-370.2-1342.9-765.4l-203.4-203.4l-140,149.6c-418.2,452.7-959.2,748.2-1563.5,851.8C3079.7,4416.1,2598.2,4414.2,2389.1,4377.7z M5621.6,1952.9V1339h613.9h613.9V725.1V111.2h-613.9h-613.9v-613.9v-613.9h-613.9h-613.9v613.9v613.9h-613.9H3166v613.9V1339h613.9h613.9v613.9v613.9h613.9h613.9V1952.9z"/></g></g>
</svg>