<?xml version="1.0" encoding="UTF-8"?>
<svg width="700pt" height="700pt" version="1.1" viewBox="0 0 700 700" xmlns="http://www.w3.org/2000/svg">
 <g>
  <path d="m218.75 339.5 101.5-59.5-101.5-59.5z"/>
  <path d="m392 339.5 103.25-59.5-103.25-59.5z"/>
  <path d="m350 17.5c-145.25 0-262.5 117.25-262.5 262.5s117.25 262.5 262.5 262.5 262.5-117.25 262.5-262.5-117.25-262.5-262.5-262.5zm173.25 287-124.25 71.75c-3.5 1.75-8.75 3.5-14 3.5s-8.75-1.75-14-3.5c-8.75-5.25-14-14-14-24.5v-56c-1.75 3.5-5.25 5.25-8.75 7l-124.25 71.75c-3.5 1.75-8.75 3.5-14 3.5s-8.75-1.75-14-3.5c-8.75-5.25-14-14-14-24.5v-143.5c0-10.5 5.25-19.25 14-24.5s19.25-5.25 28 0l124.25 71.75c3.5 1.75 5.25 5.25 8.75 7v-56c0-10.5 5.25-19.25 14-24.5s19.25-5.25 28 0l124.25 71.75c8.75 5.25 14 14 14 24.5s-5.25 22.75-14 28z"/>
 </g>
</svg>
