<?xml version="1.0" encoding="UTF-8"?>
<svg width="700pt" height="700pt" version="1.1" viewBox="0 0 700 700" xmlns="http://www.w3.org/2000/svg" xmlns:xlink="http://www.w3.org/1999/xlink">
 <g>
  <path d="m616.56 479.36-128.8-128.8-15.68 15.68-15.68-15.68c-13.441 16.801-20.16 23.52-30.238 32.48l14.559 14.559-15.68 15.68 128.8 128.8c16.801 16.801 44.801 16.801 62.719 0 17.918-17.918 17.918-45.918-0.003906-62.719z"/>
  <path d="m420.56 64.961c-80.641-80.641-210.56-80.641-290.08 0-80.641 80.641-80.641 210.56 0 290.08 80.641 80.641 210.56 80.641 290.08 0 80.641-79.52 80.641-209.44 0-290.08zm-145.6 301.28c-85.121 0-155.68-69.441-155.68-155.68 0-86.238 70.559-155.68 155.68-155.68 85.121 0 155.68 69.441 155.68 155.68 0 86.242-69.441 155.68-155.68 155.68z"/>
  <path d="m274.96 79.52c-72.801 0-131.04 59.359-131.04 131.04 0 71.68 59.359 131.04 131.04 131.04 71.68 0 131.04-59.359 131.04-131.04 0-71.68-58.238-131.04-131.04-131.04zm0 51.52c26.879 0 48.16 21.281 48.16 48.16 0 26.879-21.281 48.16-48.16 48.16-26.879 0-48.16-21.281-48.16-48.16 0-26.879 21.277-48.16 48.16-48.16zm-87.359 141.12c11.199-15.68 25.762-28 43.68-35.84 26.879 17.922 61.602 17.922 88.48 0 17.922 7.8398 32.48 20.16 43.68 35.84-43.68 60.48-133.28 60.48-175.84 0z"/>
  <use x="70" y="728" xlink:href="#l"/>
  <use x="111.097656" y="728" xlink:href="#c"/>
  <use x="138.714844" y="728" xlink:href="#a"/>
  <use x="176.695312" y="728" xlink:href="#h"/>
  <use x="214.484375" y="728" xlink:href="#b"/>
  <use x="241.253906" y="728" xlink:href="#a"/>
  <use x="279.234375" y="728" xlink:href="#g"/>
  <use x="338.816406" y="728" xlink:href="#f"/>
  <use x="378.902344" y="728" xlink:href="#e"/>
  <use x="434.902344" y="728" xlink:href="#d"/>
  <use x="478.242188" y="728" xlink:href="#a"/>
  <use x="516.222656" y="728" xlink:href="#k"/>
  <use x="549.417969" y="728" xlink:href="#b"/>
  <use x="576.1875" y="728" xlink:href="#j"/>
  <use x="614.660156" y="728" xlink:href="#c"/>
  <use x="642.277344" y="728" xlink:href="#i"/>
 </g>
</svg>
