<?xml version="1.0" encoding="UTF-8"?>
<svg width="700pt" height="700pt" version="1.1" viewBox="0 0 700 700" xmlns="http://www.w3.org/2000/svg" xmlns:xlink="http://www.w3.org/1999/xlink">
 <g>
  <path d="m350 14c-146.72 0-266 119.28-266 266s119.28 266 266 266 266-119.28 266-266-119.28-266-266-266zm0 488.32c-122.64 0-222.32-99.68-222.32-222.32s99.68-222.32 222.32-222.32 222.32 99.68 222.32 222.32-99.68 222.32-222.32 222.32z"/>
  <path d="m483.84 222.32-89.039-2.2422-30.238-84.559c-2.2383-6.1602-7.8398-10.078-14.559-10.078s-12.32 3.9219-14.559 10.078l-29.68 84-90.16 2.2383c-6.7188 0-12.32 4.4805-14.559 10.641-2.2383 6.1602 0 12.879 5.0391 17.359l70.559 54.32-25.762 86.238c-1.6797 6.1602 0.55859 12.879 5.6016 16.801 5.0391 3.9219 12.32 3.9219 17.922 0l73.359-50.398 73.922 50.961c2.8008 1.6797 5.6016 2.8008 8.9609 2.8008 3.3594 0 6.1602-1.1211 8.9609-2.8008 5.0391-3.9219 7.8398-10.641 5.6016-16.801l-25.199-85.121 71.121-54.879c5.0391-3.9219 7.2812-10.641 5.0391-17.359-0.011719-6.7188-5.6133-10.641-12.332-11.199z"/>
  <use x="70" y="644" xlink:href="#x"/>
  <use x="90.550781" y="644" xlink:href="#c"/>
  <use x="104.359375" y="644" xlink:href="#a"/>
  <use x="123.347656" y="644" xlink:href="#l"/>
  <use x="142.242188" y="644" xlink:href="#b"/>
  <use x="155.628906" y="644" xlink:href="#a"/>
  <use x="174.617188" y="644" xlink:href="#k"/>
  <use x="204.410156" y="644" xlink:href="#j"/>
  <use x="224.453125" y="644" xlink:href="#i"/>
  <use x="252.453125" y="644" xlink:href="#h"/>
  <use x="274.121094" y="644" xlink:href="#w"/>
  <use x="283.71875" y="644" xlink:href="#g"/>
  <use x="293.316406" y="644" xlink:href="#f"/>
  <use x="309.914062" y="644" xlink:href="#a"/>
  <use x="338.652344" y="644" xlink:href="#v"/>
  <use x="361.894531" y="644" xlink:href="#a"/>
  <use x="380.882812" y="644" xlink:href="#u"/>
  <use x="397.550781" y="644" xlink:href="#g"/>
  <use x="407.148438" y="644" xlink:href="#t"/>
  <use x="427.191406" y="644" xlink:href="#e"/>
  <use x="70" y="672" xlink:href="#s"/>
  <use x="82.183594" y="672" xlink:href="#c"/>
  <use x="95.992188" y="672" xlink:href="#d"/>
  <use x="115.226562" y="672" xlink:href="#r"/>
  <use x="154.152344" y="672" xlink:href="#b"/>
  <use x="167.535156" y="672" xlink:href="#q"/>
  <use x="187.46875" y="672" xlink:href="#a"/>
  <use x="216.207031" y="672" xlink:href="#p"/>
  <use x="239.640625" y="672" xlink:href="#d"/>
  <use x="258.878906" y="672" xlink:href="#o"/>
  <use x="278.8125" y="672" xlink:href="#e"/>
  <use x="308.492188" y="672" xlink:href="#n"/>
  <use x="329.015625" y="672" xlink:href="#c"/>
  <use x="342.820312" y="672" xlink:href="#d"/>
  <use x="362.058594" y="672" xlink:href="#m"/>
  <use x="371.65625" y="672" xlink:href="#a"/>
  <use x="390.648438" y="672" xlink:href="#f"/>
  <use x="407.242188" y="672" xlink:href="#b"/>
 </g>
</svg>
