<?xml version="1.0" encoding="utf-8"?>
<!-- Svg Vector Icons : http://www.onlinewebfonts.com/icon -->
<!DOCTYPE svg PUBLIC "-//W3C//DTD SVG 1.1//EN" "http://www.w3.org/Graphics/SVG/1.1/DTD/svg11.dtd">
<svg version="1.1" xmlns="http://www.w3.org/2000/svg" xmlns:xlink="http://www.w3.org/1999/xlink" x="0px" y="0px" viewBox="0 0 1000 1000" enable-background="new 0 0 1000 1000" xml:space="preserve">
<metadata> Svg Vector Icons : http://www.onlinewebfonts.com/icon </metadata>
<g><g transform="translate(0.000000,511.000000) scale(0.100000,-0.100000)"><path d="M4633.7,4976.6C3489.7,4848.4,2533.3,4066,2139.2,2937.4c-153-440-214.3-883.8-197-1411.7c21-637,130.1-952.6,478.2-1390.7C2535.2-6.6,2542.8-12.4,2621.3-14.3c44,0,80.3,1.9,82.3,5.7c0,1.9,9.6,426.6,17.2,941.2c17.2,1010,26.8,1098,124.3,1291.2c67,132,214.3,286.9,325.2,342.4c86.1,44,426.6,111,793.9,155c311.8,40.2,1545.7,47.8,1914.8,11.5c428.5-40.2,837.9-112.9,945-166.4c110.9-55.5,258.3-210.4,325.2-342.4c97.5-193.2,107.1-281.2,124.3-1291.2c7.7-514.6,15.3-939.3,17.2-941.2c1.9-3.8,38.3-5.7,84.2-5.7c76.5,1.9,84.2,7.6,197,149.2c374.9,470.6,485.9,828.3,485.9,1551.4C8054,3738.9,6544.7,5190.8,4633.7,4976.6z M5157.8,4148.3c34.4-13.4,93.7-57.4,130.1-95.6l67-68.9H5879c308,0,514.6-7.7,503.1-17.2c-9.6-9.6-254.4-118.6-543.3-241c-288.8-124.3-564.3-252.5-610.2-285c-76.5-53.6-95.6-59.3-231.5-59.3c-137.7,0-156.9,5.7-237.2,61.2c-47.8,34.4-321.4,160.7-608.3,285c-286.9,122.4-529.9,229.6-539.4,239.1c-11.5,9.6,197,17.2,506.9,17.2h526.1l40.2,55.5C4775.2,4157.8,5004.8,4211.4,5157.8,4148.3z"/><path d="M4308.5,2501.2c-746-57.4-732.7-55.5-891.4-132c-162.6-76.5-286.9-193.2-353.9-327.1c-45.9-95.6-45.9-101.4-51.6-730.7c-3.8-401.7,1.9-661.9,13.4-709.7c55.5-204.7,237.2-329,543.3-367.3c267.8-36.4,633.2,24.9,786.2,130.1c74.6,51.7,99.5,91.8,193.2,294.6c61.2,132,191.3,271.6,302.2,321.4c241,110.9,512.7-51.7,682.9-407.5c80.4-170.3,162.6-260.2,285-317.6c53.6-23,130.1-30.6,336.7-30.6c459.1,1.9,669.5,78.4,780.5,286.9c40.2,72.7,42.1,103.3,47.8,713.5c5.7,715.4,0,770.9-118.6,925.9c-36.3,47.8-112.9,116.7-170.2,154.9c-185.6,124.3-277.4,141.6-1027.3,195.1c-373,26.8-704,47.8-736.5,45.9C4899.6,2545.2,4618.4,2524.2,4308.5,2501.2z"/><path d="M4796.3,634.2c-82.3-72.7-174.1-235.3-269.7-474.4c-84.2-210.4-153-288.8-298.4-338.6c-248.7-88-748-13.4-1186,174.1c-30.6,11.5-34.4,0-34.4-124.3c0-164.5,34.4-225.7,250.6-430.4c285-269.7,713.5-495.5,1107.6-583.4c97.6-21,109-30.6,158.8-116.7c53.6-97.5,176-198.9,286.9-241c80.3-28.7,277.4-30.6,359.6-1.9c111,36.3,227.6,130.1,294.6,233.4c61.2,97.6,67,101.4,189.4,122.4c491.6,91.8,1109.5,424.7,1383,746.1l101.4,118.6v141.5V2.9L6944.5-64c-308-103.3-545.2-147.3-809.2-147.3c-384.5-1.9-503.1,70.8-640.8,386.4c-99.5,227.6-229.6,430.4-309.9,480.2c-45.9,28.7-97.5,38.3-191.3,38.3C4876.6,693.5,4857.5,687.8,4796.3,634.2z"/><path d="M3204.7-1460.5c-107.1-67-396-225.7-640.8-353.9c-1084.6-568.1-1415.6-784.3-1796.2-1176.4C323.8-3451.8,100-3977.9,100-4565.2v-212.3h4899h4901l-11.5,273.6c-13.4,420.8-114.8,749.9-342.4,1119.1c-72.7,120.5-172.2,237.2-359.6,424.7c-388.3,388.3-665.7,572-1654.7,1090.4c-472.5,248.7-730.7,392.1-918.2,514.6c-36.4,23-55.5,13.4-191.3-88c-300.3-225.7-591.1-367.3-924-451.4c-241-59.3-761.3-59.3-1002.4,0c-330.9,84.2-660,244.9-935.4,457.2c-72.7,57.4-139.6,103.3-147.3,101.4C3405.6-1338,3311.8-1393.5,3204.7-1460.5z"/></g></g>
</svg>