<?xml version="1.0" encoding="UTF-8"?>
<svg width="700pt" height="600pt" version="1.1" viewBox="0 0 700 600" xmlns="http://www.w3.org/2000/svg" xmlns:xlink="http://www.w3.org/1999/xlink">
 <g>
  <path d="m424.09 191.02 35.617 35.617-53.426 53.367 53.426 53.426-35.617 35.617-53.426-53.426-53.426 53.426-35.617-35.617 53.426-53.426-53.426-53.426 35.617-35.617 53.426 53.426zm70-156.52h-246.85c-29.961 0-54.32 24.359-54.32 54.32v382.43c0 29.961 24.359 54.32 54.32 54.32h246.85c29.961 0 54.32-24.359 54.32-54.32v-382.43c0-29.961-24.359-54.32-54.316-54.32zm37.688 436.69c0 20.777-16.91 37.688-37.688 37.688h-246.85c-20.777 0-37.688-16.91-37.688-37.688v-382.37c0-20.777 16.91-37.688 37.688-37.688h246.85c20.777 0 37.688 16.91 37.688 37.688zm-37.688-398.44h-246.85c-8.8477 0-16.07 7.2227-16.07 16.07v382.43c0 8.8477 7.2227 16.07 16.07 16.07h246.85c8.8477 0 16.07-7.2227 16.07-16.07l0.003906-382.42c0-8.9062-7.168-16.074-16.07-16.074zm-22.625 248.92 11.762 11.762-59.141 59.141-53.426-53.426-53.426 53.426-59.141-59.141 11.762-11.762 41.73-41.664-53.426-53.426 59.141-59.141 53.426 53.426 53.426-53.426 59.141 59.141-11.762 11.762-41.73 41.664z"/>
  <use x="70" y="644" xlink:href="#u"/>
  <use x="90.550781" y="644" xlink:href="#b"/>
  <use x="104.359375" y="644" xlink:href="#a"/>
  <use x="123.347656" y="644" xlink:href="#k"/>
  <use x="142.242188" y="644" xlink:href="#c"/>
  <use x="155.628906" y="644" xlink:href="#a"/>
  <use x="174.617188" y="644" xlink:href="#j"/>
  <use x="204.410156" y="644" xlink:href="#i"/>
  <use x="224.453125" y="644" xlink:href="#h"/>
  <use x="252.453125" y="644" xlink:href="#g"/>
  <use x="272.617188" y="644" xlink:href="#c"/>
  <use x="286" y="644" xlink:href="#a"/>
  <use x="304.992188" y="644" xlink:href="#t"/>
  <use x="325.035156" y="644" xlink:href="#f"/>
  <use x="344.96875" y="644" xlink:href="#a"/>
  <use x="363.960938" y="644" xlink:href="#e"/>
  <use x="393.640625" y="644" xlink:href="#s"/>
  <use x="415.335938" y="644" xlink:href="#a"/>
  <use x="434.328125" y="644" xlink:href="#b"/>
  <use x="448.136719" y="644" xlink:href="#b"/>
  <use x="70" y="672" xlink:href="#r"/>
  <use x="82.183594" y="672" xlink:href="#b"/>
  <use x="95.992188" y="672" xlink:href="#d"/>
  <use x="115.226562" y="672" xlink:href="#q"/>
  <use x="154.152344" y="672" xlink:href="#c"/>
  <use x="167.535156" y="672" xlink:href="#f"/>
  <use x="187.46875" y="672" xlink:href="#a"/>
  <use x="216.207031" y="672" xlink:href="#p"/>
  <use x="239.640625" y="672" xlink:href="#d"/>
  <use x="258.878906" y="672" xlink:href="#o"/>
  <use x="278.8125" y="672" xlink:href="#e"/>
  <use x="308.492188" y="672" xlink:href="#n"/>
  <use x="329.015625" y="672" xlink:href="#b"/>
  <use x="342.820312" y="672" xlink:href="#d"/>
  <use x="362.058594" y="672" xlink:href="#m"/>
  <use x="371.65625" y="672" xlink:href="#a"/>
  <use x="390.648438" y="672" xlink:href="#l"/>
  <use x="407.242188" y="672" xlink:href="#c"/>
 </g>
</svg>
