<?xml version="1.0" encoding="utf-8"?>
<!-- Svg Vector Icons : http://www.onlinewebfonts.com/icon -->
<!DOCTYPE svg PUBLIC "-//W3C//DTD SVG 1.1//EN" "http://www.w3.org/Graphics/SVG/1.1/DTD/svg11.dtd">
<svg version="1.1" xmlns="http://www.w3.org/2000/svg" xmlns:xlink="http://www.w3.org/1999/xlink" x="0px" y="0px" viewBox="0 0 1000 1000" enable-background="new 0 0 1000 1000" xml:space="preserve">
<metadata> Svg Vector Icons : http://www.onlinewebfonts.com/icon </metadata>
<g><path d="M965.6,722.8L779,604.1c-32.5-21.1-59.2-6.8-59.2,31.8v103.2h-345C218,739.2,76,595.5,76,437.1c0-158.5,142-302.1,298.8-302.1h329.6c64.7,0,125.6,21.4,176.2,61.8c17.3,13.9,45,20.8,61.2,1.8c11.9-15.9,3.8-38.1-13.6-51.9c-31.5-25.2-64.1-42.8-101.9-56.3c-39.1-14-80.1-21.1-121.9-21.1H374.8c-97.5,0-189.2,38.3-258.1,107.9C47.9,246.6,10,338.9,10,437.1c0,98.2,37.9,190.5,106.7,259.9c68.9,69.6,160.6,107.9,258.1,107.9h345v84.3c0,38.7,26.6,53,59.2,31.8l186.6-121.3C998.1,778.5,998.1,743.9,965.6,722.8z"/><path d="M596.7,601.6H410.6v-35.4h72.7V319.6l-74.6,21.6v-37.7L524.2,270v296.2h72.5L596.7,601.6L596.7,601.6z"/></g>
</svg>