<?xml version="1.0" encoding="UTF-8"?>
<svg version="1.1" viewBox="350 0 1 550" xmlns="http://www.w3.org/2000/svg" xmlns:xlink="http://www.w3.org/1999/xlink">
 <g>
  <path d="m473.82 530.6h-251.72c-30.52 0-55.383-24.863-55.383-55.383l-0.003906-389.93c0-30.52 24.863-55.383 55.383-55.383h251.72c30.52 0 55.383 24.863 55.383 55.383v389.93c0.003907 30.516-24.859 55.383-55.379 55.383zm-251.72-483.73c-21.168 0-38.414 17.246-38.414 38.414v389.93c0 21.168 17.246 38.414 38.414 38.414h251.72c21.168 0 38.414-17.246 38.414-38.414v-389.93c0-21.168-17.246-38.414-38.414-38.414zm268.12 433.89v-401.07c0-5.9922-4.8711-10.809-10.809-10.809h-262.92c-5.9922 0-10.809 4.8711-10.809 10.809v401.07c0 5.9922 4.8711 10.809 10.809 10.809h262.86c5.9922 0.058594 10.863-4.8125 10.863-10.805z"/>
 </g>
</svg>
